<?xml version="1.0" encoding="utf-8"?>
<!-- Generator: Adobe Illustrator 16.0.0, SVG Export Plug-In . SVG Version: 6.00 Build 0)  -->
<!DOCTYPE svg PUBLIC "-//W3C//DTD SVG 1.1//EN" "http://www.w3.org/Graphics/SVG/1.1/DTD/svg11.dtd">
<svg version="1.1" id="Livello_1" xmlns="http://www.w3.org/2000/svg" xmlns:xlink="http://www.w3.org/1999/xlink" x="0px" y="0px"
	 width="200px" height="67px" viewBox="0 0 200 67" enable-background="new 0 0 200 67" xml:space="preserve">
<g>
	<g>
		<g>
			<g>
				<g>
					<g>
						<path fill="#444444" d="M7.896,28.359C13.562,17.875,23.35,6.44,34.909,2.623c2.375-0.592,5.531-1.258,7.636,0.365
							c1.872,1.388,2.125,3.761,1.7,5.897c-0.556,2.526-2.288,5.726-5.183,6.132c-0.521,0-0.964-0.185-1.301-0.551
							c-0.754-0.732-0.698-1.801-0.538-2.765c0.477-2.005,2.334-4.136,4.472-4.416c0.366-0.234,0.211-0.677,0.107-0.989
							c-0.284-0.445-0.622-0.785-1.144-0.891c-2.318-0.269-4.069,1.185-5.847,2.403c-6.744,5.425-11.642,12.393-15.758,19.338
							c-3.358,6.245-6.221,12.699-7.055,19.994c-0.41,5.289,1.267,10.482,5.976,13.028c5.099,2.702,11.7,0.873,16.813-0.516
							l4.697-1.444l9.028-2.679c8.558-2.5,19.272-3.062,27.628,0.251c5.05,2.103,10.253,4.989,13.546,9.952
							c0,0.13-0.001,0.287-0.158,0.261c-7.161-1.954-16.485-3.89-23.587-0.5l-0.339-0.078c-2.152-3.449-5.794-5.364-9.519-6.107
							c-12.038-1.161-21.937,4.538-33.253,5.958c-5.736,0.528-11.887,0.351-15.886-4.041c-6.312-6.305-5.569-17.433-2.571-25.032
							C5.349,33.512,6.557,30.91,7.896,28.359z"/>
						<path fill="#444444" d="M24.512,32.118c2.991-5.489,7.575-12.198,13.916-14.209c1.696-0.385,3.52-0.223,4.819,0.903
							c2.728,2.72,1.668,7.382,0.745,10.584c0,0.183,0.155,0.391,0.337,0.418c2.424-0.069,4.383-1.209,6.135-2.872
							c3.768-4.209,7.802-9.721,13.924-9.075c1.146,0.187,2.265,0.842,2.86,1.913c1.553,3.081,0.03,6.49-2.089,8.855
							c-0.811,0.779-1.829,1.375-3.001,1.005c-0.469-0.157-0.858-0.628-1.039-1.098c-0.436-2.164,0.823-4.167,2.572-5.308
							c0.498-0.493,2.008-0.149,1.595-1.271c-0.312-0.445-0.781-0.498-1.276-0.5c-2.975,1.241-4.915,4.285-6.645,6.833
							c-2.175,3.407-3.935,7.024-5.093,10.851c-0.317,1.382-0.715,3.179,0.088,4.458c0.597,0.81,1.586,1.153,2.604,0.896
							c2.949-1.164,5.539-3.526,7.788-5.969c5.157-6.185,7.894-13.839,14.792-18.872c2.143-1.479,5.17-2.615,7.746-1.25
							c0.416,0.158,0.753,0.707,1.275,0.5c0.418-0.416,0.708-1.301,1.541-1.09c1.903,0.034,4.093-0.063,6.046,0.126l0.13,0.183
							l-0.551,1.327l-10.71,21.754c-0.104,0.234-0.132,0.546-0.081,0.809c0.181,0.313,0.573,0.288,0.859,0.185
							c1.542-0.881,2.746-2.519,3.82-3.896c0.942-1.3,1.781-2.652,2.464-4.083c0.288-0.417,0.629-0.936,1.202-0.855
							c0.6,0.08,1.355-0.179,1.798,0.241c-0.684,1.823-1.759,3.486-2.703,5.203c-2.909,4.473-6.706,9.673-12.054,11.01
							c-0.887,0.102-1.981,0.177-2.657-0.478c-1.04-0.786-1.087-2.038-1.371-3.159c-0.104-0.132-0.286-0.157-0.442-0.106
							c-2.275,2.052-4.628,4.103-7.833,3.701c-0.99-0.213-1.925-0.972-2.365-1.912c-0.829-1.592-0.431-3.649-0.477-5.423
							c-0.077-0.209-0.338-0.131-0.442-0.053c-3.479,3.429-7.243,6.517-11.859,7.388c-2.139,0.253-3.986-0.379-5.416-1.896
							c-3.45-4.521-0.719-10.453,1.095-14.853c0.079-0.208,0.053-0.496-0.207-0.548c-1.251,0.099-2.451,0.303-3.65,0.482
							l-0.419,0.468c-2.807,5.203-5.85,10.718-10.894,14.584c-2.09,1.504-5.195,2.537-7.641,1.147
							c-2.549-1.756-2.773-4.884-2.45-7.776C21.91,38.104,23.095,35.059,24.512,32.118z M32.488,31.859
							c-1.47,2.965-2.966,5.958-3.03,9.477c0.154,0.651,0.543,1.41,1.272,1.595c0.781,0.212,1.435-0.203,2.036-0.592
							c2.875-2.415,4.868-5.717,6.495-8.893c0.131-0.311,0.368-0.702,0.186-1.042c-1.718-0.684-3.382-1.863-4.706-3.353
							l-0.287-0.053c-0.26,0.051-0.366,0.312-0.548,0.494L32.488,31.859z M36.967,25.827c0.098,1.565,1.553,2.926,2.933,3.451
							c0.338,0.105,0.885,0.369,1.173-0.048c0.524-0.988,0.841-2.083,1.105-3.176c0.266-1.433,0.48-3.36-0.898-4.304
							c-0.469-0.263-1.172-0.291-1.667-0.058C38.047,22.469,36.921,24.055,36.967,25.827z M72.27,37.966
							c-0.396,1.303-1,2.708-0.587,4.143c0.128,0.287,0.44,0.496,0.727,0.576c1.173,0.029,1.959-1.036,2.718-1.868
							c3.431-4.757,6.055-9.883,8.419-15.088c0.395-1.093,1.022-2.107,1.002-3.333c-0.025-0.261-0.286-0.443-0.494-0.575
							c-0.521-0.236-1.018,0.127-1.435,0.334c-4.625,3.555-7.12,8.655-9.431,13.495L72.27,37.966z"/>
						<path fill="#444444" d="M94.549,24.593c1.023-2.029,1.891-4.137,3.175-6.061c0.522-0.572,1.331-0.543,2.035-0.619l5.133,0.07
							l0.209,0.209c-0.867,2.056-1.813,4.085-2.889,6.063c-0.262,0.52-0.812,1.014-1.411,1.09c-2.084,0.045-4.3,0.167-6.282-0.022
							C94.313,25.114,94.496,24.828,94.549,24.593z"/>
						<path fill="#444444" d="M99.7,35.011c3.57-7.39,7.87-14.517,13.964-20.804c5.912-5.896,12.314-10.67,20.061-12.129
							c2.112-0.306,4.484-0.115,6.095,1.325c0.313,0.262,0.676,0.523,1.119,0.369c5.561-2.223,13.277-3.004,18.846-0.222
							c3.228,1.575,6.296,3.592,9.391,5.532c0.391,0.21,0.206,0.626-0.002,0.86c-1.779,1.975-3.273,4.003-4.87,6.057
							c-0.183,0.182-0.47,0.102-0.65-0.002l-8.191-5.632c-3.823-2.593-8.222-4.408-13.202-3.591
							c-0.549,0.286-0.291,0.964-0.371,1.485c0.112,5.109-1.701,9.56-4.165,13.618c-1.966,2.834-4.243,5.798-7.582,6.751
							c-1.462,0.308-2.868-0.141-3.749-1.316c-2.438-3.71-0.284-8.238,1.498-11.542c2.047-3.589,5.213-6.967,8.637-9.562
							c0.078-0.13,0.234-0.259,0.131-0.417c-0.337-0.339-0.911-0.133-1.329-0.057c-5.558,1.857-10.007,6.769-14.115,11.42
							c-7.329,9.019-12.889,18.8-16.054,29.554c-0.979,4.037-2.302,10.235,1.806,13.064c3.616,1.943,7.091-0.548,9.811-2.884
							c4.133-4.21,6.912-9.074,8.052-14.57c0.188-1.641,0.639-3.88-0.869-5.006c-1.353-0.605-2.477,0.512-3.394,1.447
							c-2.119,2.547-3.015,5.593-3.392,8.875c-0.941,0.78-2.064,1.271-3.058,2.023c-1.881,1.298-3.737,3.037-5.229,4.778
							c-0.183,0.052-0.21-0.158-0.261-0.261c-0.213-6.049,1.941-11.229,5.269-15.883c2.643-3.066,6.04-5.687,10.154-4.708
							c1.798,0.475,2.99,2.382,3.323,4.078c0.658,5.686-1.73,10.656-4.303,15.286c-4.141,6.501-10.679,13.072-18.965,12.288
							c-3.179-0.192-6.143-2.393-7.488-5.315c-3.133-6.24-0.967-14.262,1.139-20.303L99.7,35.011z M127.887,24.239
							c0.076,0.705,0.36,1.461,1.091,1.725c1.405,0.396,2.529-0.643,3.574-1.448c3.769-3.974,6.051-8.58,6.645-13.87
							c0-0.782,0.267-1.771-0.175-2.451c-0.313-0.053-0.653,0.077-0.914,0.257c-2.534,1.686-4.915,4.154-6.644,6.65
							C129.656,17.886,128.004,20.748,127.887,24.239z"/>
						<path fill="#444444" d="M133.169,41.929c3.012-3.977,7.015-8.315,12.074-8.637c1.275,0.031,2.394,0.557,3.173,1.628
							c2.152,3.187,0.339,7.273-0.453,10.501c-0.078,0.287,0.129,0.496,0.336,0.574c1.044,0.162,2.243,0.01,3.155-0.457l0.394-0.494
							c3.633-10.361,9.036-19.986,15.452-29.165c4.008-5.303,9.135-10.785,15.087-13.346c1.409-0.49,3.444-1.082,4.797-0.035
							c1.508,1.229,1.084,3.366,0.686,5.006c-0.161,1.459-1.778,1.609-2.848,1.946c-0.051-0.027-0.104,0-0.156-0.053
							c0.029-0.938,0.528-1.77,0.713-2.683c0.053-0.495,0.134-0.912-0.074-1.381c-0.258-0.47-0.832-0.316-1.223-0.186
							c-2.011,0.982-3.633,2.776-5.178,4.517c-5.757,6.678-9.927,14.093-13.758,21.586c-1.261,2.603-2.573,5.179-3.599,7.885
							c-0.027,0.157,0.025,0.263,0.154,0.366c0.887-0.022,1.412-0.933,2.091-1.399c5.072-4.597,9.183-9.874,12.98-15.229
							c0.81-0.389,1.748-0.385,2.687-0.46l0.183,0.052c-0.055,0.73-0.682,1.302-1.023,1.952
							c-4.244,6.111-9.061,11.958-14.917,17.281l-4.234,3.479c-0.89,0.778-0.919,1.977-1.365,2.966
							c-0.817,2.683-1.636,5.415-1.75,8.36c0.024,0.494,0.205,0.965,0.621,1.227c1.12,0.5,2.009-0.564,2.794-1.293
							c5.731-6.627,8.262-14.75,15.268-20.695c2.3-1.816,5.329-3.37,8.296-2.004c0.521,0.185,0.908,0.864,1.536,0.553
							c0.444-0.312,0.472-1.015,1.099-0.987c2.059-0.019,4.248-0.089,6.229,0.074c0.181,0.157,0.051,0.417-0.002,0.599l-1.418,2.862
							l-8.767,17.694c-0.394,0.807-0.918,1.666-0.87,2.578c0.13,0.391,0.548,0.42,0.885,0.343c1.647-0.907,2.85-2.415,3.925-3.949
							c1.074-1.509,1.939-3.096,2.961-4.629c0.549-0.26,1.303-0.151,1.902-0.071c0.363,0.34-0.105,0.78-0.186,1.172
							c-2.573,5.334-6.163,11.162-11.777,14.111c-1.307,0.648-3.107,1.241-4.538,0.455c-1.144-0.786-1.035-2.221-1.552-3.316
							c-0.104-0.157-0.365-0.131-0.495-0.054c-2.327,2.077-4.838,4.415-8.093,3.517c-2.029-0.945-2.257-3.292-2.406-5.3
							c-0.104-0.079-0.051-0.235-0.18-0.313l-0.261,0.103c-2.278,2.73-5.157,6.135-8.988,5.809c-1.459-0.11-2.731-1.521-3.17-2.827
							c-1.342-4.253,0.083-8.913,1.035-13.003c0.001-0.234-0.259-0.47-0.467-0.497l-3.205,0.042l-0.524,0.598
							c-2.363,4.631-4.958,9.104-9.038,12.976c-2.144,1.895-4.781,3.476-7.724,2.604c-2.446-1.051-3.089-3.711-3.08-6.213
							C126.878,52.361,129.712,47.027,133.169,41.929z M134.007,56.087c0.049,0.887,0.488,1.799,1.4,2.09
							c0.599,0.21,1.25-0.047,1.773-0.308c3.005-2.229,4.79-5.665,6.416-8.787c0.158-0.313,0.29-0.807-0.126-1.044
							c-1.562-0.787-3.069-2.017-4.314-3.402c-0.155-0.157-0.442-0.185-0.626-0.081c-1.126,1.509-1.861,3.174-2.649,4.839
							C134.987,51.503,134.015,53.584,134.007,56.087z M141.565,41.464c0.097,1.59,1.369,3.08,2.828,3.605
							c0.285,0.107,0.807,0.238,1.016-0.125c0.895-2.031,1.736-4.347,1.275-6.695c-0.182-0.548-0.648-1.096-1.222-1.281
							c-0.572-0.158-1.173,0.022-1.668,0.254C142.332,38.183,141.622,39.77,141.565,41.464z M170.293,55.377
							c-0.056,0.756-0.241,1.695,0.33,2.271c0.312,0.313,0.808,0.341,1.198,0.213c1.541-0.804,2.537-2.443,3.48-3.794
							c3.144-4.891,5.455-10.12,7.611-15.431c0.08-0.47,0.213-1.121-0.229-1.435c-1.274-0.604-2.27,0.8-3.211,1.476
							c-4.158,4.129-6.365,9.126-8.442,14.149L170.293,55.377z"/>
						<path fill="#444444" d="M176.37,16.51l2.774-3.588l0.418-0.363c8.03-0.154,14.302-4.929,19.951-10.566
							c-0.029,0.756-0.371,1.458-0.633,2.136c-3.705,8.719-12.697,16.377-22.421,16.5l-2.294-0.035
							c-0.416-0.105-0.129-0.522-0.023-0.729L176.37,16.51z"/>
					</g>
				</g>
			</g>
		</g>
	</g>
	<path fill="#444444" d="M186.495,62.529c0-1.091,0.823-1.913,1.877-1.913c1.042,0,1.864,0.822,1.864,1.913
		c0,1.11-0.822,1.925-1.864,1.925C187.318,64.454,186.495,63.64,186.495,62.529z M188.372,64.838c1.255,0,2.327-0.975,2.327-2.309
		c0-1.321-1.072-2.297-2.327-2.297c-1.267,0-2.34,0.976-2.34,2.297C186.032,63.863,187.105,64.838,188.372,64.838z M187.884,62.713
		h0.464l0.701,1.15h0.451l-0.756-1.169c0.391-0.049,0.688-0.257,0.688-0.73c0-0.525-0.311-0.756-0.938-0.756h-1.012v2.655h0.401
		V62.713z M187.884,62.371v-0.823h0.549c0.28,0,0.579,0.061,0.579,0.391c0,0.408-0.305,0.433-0.646,0.433H187.884z"/>
</g>
</svg>
