<?xml version="1.0" encoding="utf-8"?>
<!-- Generator: Adobe Illustrator 16.0.0, SVG Export Plug-In . SVG Version: 6.00 Build 0)  -->
<!DOCTYPE svg PUBLIC "-//W3C//DTD SVG 1.1//EN" "http://www.w3.org/Graphics/SVG/1.1/DTD/svg11.dtd">
<svg version="1.1" id="Livello_1" xmlns="http://www.w3.org/2000/svg" xmlns:xlink="http://www.w3.org/1999/xlink" x="0px" y="0px"
	 width="144.917px" height="67px" viewBox="0 0 144.917 67" enable-background="new 0 0 144.917 67" xml:space="preserve">
<g>
	<rect x="2.001" y="1.75" fill="#444444" width="140.625" height="63.639"/>
	<polygon fill="#FFFFFF" points="123.437,10.785 131.306,10.785 131.306,48.08 137.979,48.08 137.979,57.49 123.437,57.49 	"/>
	<g>
		<circle fill="none" stroke="#FFFFFF" stroke-width="0.5703" cx="135.669" cy="13.266" r="2.994"/>
		<path fill="#FFFFFF" d="M134.5,14.806v-3.141h1.393c0.28,0,0.492,0.028,0.638,0.085c0.146,0.057,0.263,0.156,0.349,0.299
			c0.087,0.143,0.132,0.301,0.132,0.475c0,0.223-0.074,0.41-0.217,0.563c-0.144,0.153-0.368,0.25-0.668,0.292
			c0.11,0.053,0.194,0.105,0.251,0.157c0.122,0.112,0.236,0.25,0.344,0.417l0.543,0.854h-0.52l-0.416-0.653
			c-0.122-0.188-0.221-0.333-0.3-0.433c-0.079-0.1-0.148-0.169-0.209-0.21c-0.063-0.041-0.126-0.068-0.19-0.083
			c-0.048-0.01-0.125-0.016-0.232-0.016h-0.481v1.395H134.5z M134.917,13.05h0.893c0.19,0,0.338-0.019,0.446-0.059
			c0.107-0.04,0.188-0.102,0.244-0.188c0.055-0.087,0.083-0.181,0.083-0.281c0-0.149-0.054-0.271-0.162-0.367
			c-0.108-0.095-0.278-0.143-0.511-0.143h-0.994V13.05z"/>
	</g>
	<path fill="#FFFFFF" d="M7.783,57.319V10.785H18.39l3.764,19.503l4.277-19.503h10.265v41.915l6.672-41.915h10.437l6.5,41.915
		V10.956h13.857c0,0,4.791,0.855,7.186,7.527l-1.027-7.698h8.384l3.935,24.123l4.106-23.952h23.611v8.726h-7.015v9.58h6.672v9.753
		h-6.501v8.896h6.844v9.409H105.13V12.495l-7.871,44.824h-9.41L82.888,27.55c0,0-0.856,8.212-5.475,11.976l5.988,17.793h-8.212
		l-5.817-15.568v15.568H52.778l-0.856-4.449h-6.33l-1.368,4.449h-15.74V40.211l-4.106,17.108h-4.277l-3.764-16.937v16.766
		L7.783,57.319z M51.067,43.804l-2.396-14.201l-2.053,14.201H51.067z M69.202,33.025c5.646-0.342,5.132-7.356,5.132-7.356
		c-0.855-6.843-5.132-6.501-5.132-6.501V33.025z"/>
</g>
</svg>
