<?xml version="1.0" encoding="utf-8"?>
<!-- Generator: Adobe Illustrator 16.0.0, SVG Export Plug-In . SVG Version: 6.00 Build 0)  -->
<!DOCTYPE svg PUBLIC "-//W3C//DTD SVG 1.1//EN" "http://www.w3.org/Graphics/SVG/1.1/DTD/svg11.dtd">
<svg version="1.1" id="Livello_1" xmlns="http://www.w3.org/2000/svg" xmlns:xlink="http://www.w3.org/1999/xlink" x="0px" y="0px"
	 width="286.334px" height="67px" viewBox="0 0 286.334 67" enable-background="new 0 0 286.334 67" xml:space="preserve">
<path fill="#444444" d="M8.089,15.572c-4.557,6.547-3.994,15.064-0.507,22.022c0.078,0.17,0.168,0.33,0.253,0.494
	C7.884,38.194,7.939,38.301,8,38.405c0.026,0.058,0.067,0.121,0.101,0.177c0.056,0.114,0.116,0.219,0.175,0.327
	c0.112,0.188,0.224,0.38,0.336,0.567c0.063,0.104,0.124,0.209,0.194,0.313c0.119,0.202,0.257,0.401,0.381,0.603
	c0.056,0.086,0.108,0.17,0.168,0.254c0.179,0.272,0.358,0.541,0.556,0.807c0,0.008,0.007,0.015,0.015,0.018
	c0.03,0.045,0.063,0.088,0.093,0.129c0.168,0.23,0.336,0.454,0.512,0.676c0.06,0.082,0.126,0.164,0.187,0.244
	c0.16,0.195,0.317,0.389,0.474,0.581c0.06,0.069,0.12,0.142,0.183,0.213c0.209,0.252,0.429,0.502,0.653,0.749
	c0,0.003,0.007,0.008,0.011,0.014c0.007,0.01,0.015,0.02,0.03,0.028c0.216,0.237,0.437,0.47,0.661,0.702
	c0.071,0.07,0.142,0.14,0.22,0.215c0.171,0.174,0.343,0.349,0.526,0.52c0.075,0.072,0.149,0.141,0.22,0.209
	c0.239,0.225,0.478,0.449,0.728,0.663c0.004,0.004,0.008,0.006,0.011,0.009c0.041,0.036,0.086,0.072,0.124,0.107
	c0.22,0.188,0.44,0.375,0.664,0.56c0.09,0.075,0.179,0.146,0.269,0.218c0.187,0.148,0.373,0.289,0.56,0.432
	c0.097,0.072,0.194,0.147,0.295,0.225c0.202,0.15,0.411,0.298,0.616,0.443c0.075,0.055,0.149,0.108,0.228,0.158
	c0.019,0.018,0.041,0.032,0.06,0.047c0.205,0.135,0.399,0.266,0.601,0.398c0.089,0.057,0.175,0.113,0.261,0.171
	c0.313,0.2,0.627,0.392,0.937,0.579c0.089,0.047,0.179,0.097,0.265,0.146c0.231,0.135,0.467,0.268,0.705,0.395
	c0.131,0.072,0.262,0.137,0.396,0.203c0.16,0.088,0.328,0.178,0.5,0.266c0.041,0.016,0.082,0.031,0.119,0.052
	c0.07,0.032,0.139,0.067,0.205,0.101c0.262,0.129,0.53,0.25,0.807,0.373c0.053,0.025,0.107,0.047,0.164,0.075
	c0.31,0.134,0.619,0.263,0.938,0.388c0.074,0.028,0.148,0.063,0.227,0.088c0.288,0.112,0.586,0.223,0.881,0.328
	c0.038,0.016,0.071,0.027,0.109,0.039c0.328,0.113,0.652,0.219,0.984,0.322c0.078,0.021,0.157,0.05,0.239,0.07
	c0.34,0.103,0.668,0.223,1.015,0.287c22.033,4.017,28.435-13.24,28.435-13.24c-5.378,7-14.923,8.85-23.962,6.793
	c-0.336-0.076-0.668-0.184-1.008-0.284c-0.079-0.022-0.168-0.048-0.247-0.076c-0.328-0.099-0.653-0.206-0.97-0.313
	c-0.045-0.016-0.094-0.031-0.139-0.051c-0.287-0.099-0.57-0.207-0.854-0.316c-0.079-0.034-0.161-0.063-0.239-0.092
	c-0.313-0.123-0.623-0.256-0.926-0.389c-0.066-0.023-0.123-0.053-0.187-0.078c-0.265-0.121-0.519-0.24-0.776-0.364
	c-0.078-0.033-0.148-0.071-0.228-0.11c-0.202-0.095-0.403-0.201-0.601-0.306c-0.139-0.071-0.273-0.136-0.403-0.209
	c-0.243-0.13-0.485-0.269-0.728-0.403c-0.075-0.051-0.157-0.094-0.243-0.14c-0.313-0.187-0.631-0.379-0.94-0.577
	c-0.09-0.056-0.172-0.111-0.254-0.17c-0.228-0.143-0.451-0.295-0.672-0.443c-0.07-0.051-0.142-0.104-0.217-0.155
	c-0.213-0.149-0.422-0.3-0.634-0.456c-0.09-0.07-0.183-0.141-0.28-0.212c-0.19-0.147-0.381-0.293-0.57-0.446
	c-0.083-0.068-0.168-0.137-0.251-0.203c-0.246-0.197-0.478-0.396-0.713-0.602c-0.022-0.023-0.056-0.045-0.082-0.064
	c-0.25-0.225-0.5-0.453-0.747-0.682c-0.075-0.07-0.138-0.137-0.212-0.203c-0.179-0.176-0.358-0.348-0.534-0.525
	c-0.075-0.074-0.142-0.143-0.213-0.214c-0.224-0.226-0.444-0.459-0.661-0.698c-0.011-0.01-0.022-0.02-0.034-0.033
	c-0.228-0.25-0.448-0.504-0.668-0.762c-0.06-0.068-0.116-0.14-0.175-0.207c-0.161-0.197-0.321-0.397-0.485-0.596
	c-0.052-0.076-0.112-0.148-0.172-0.224c-0.19-0.245-0.373-0.489-0.556-0.741C9.44,28.256,7.63,18.812,11.643,11.061"/>
<path fill="#444444" d="M22.235,10.053c-3.304,4.74-3.12,11.087-0.549,16.104c0.425,0.84,0.911,1.656,1.456,2.43
	c0.492,0.709,1.037,1.549,1.697,2.118c0.232,0.261,0.482,0.515,0.74,0.771c0.063,0.063,0.127,0.125,0.193,0.192
	c0.246,0.237,0.496,0.47,0.754,0.698c0.008,0.01,0.022,0.019,0.03,0.028c0.003,0.002,0.007,0.005,0.007,0.005
	c0.287,0.254,0.579,0.495,0.881,0.73c0.071,0.05,0.135,0.106,0.205,0.157c0.299,0.233,0.605,0.457,0.915,0.677
	c0.011,0.004,0.019,0.011,0.034,0.017c0.134,0.097,0.275,0.187,0.422,0.279c0.063,0.041,0.13,0.09,0.193,0.129
	c0.228,0.148,0.451,0.285,0.684,0.422c0.033,0.018,0.066,0.035,0.1,0.053c0.195,0.117,0.4,0.232,0.605,0.338
	c0.07,0.043,0.142,0.076,0.213,0.115c0.142,0.07,0.283,0.146,0.422,0.219c0.018,0.01,0.045,0.02,0.066,0.029
	c0.291,0.145,0.586,0.276,0.877,0.409c0.071,0.028,0.131,0.052,0.198,0.08c0.239,0.103,0.481,0.204,0.721,0.295
	c0.108,0.036,0.209,0.078,0.31,0.114c0.221,0.078,0.444,0.154,0.664,0.227c0.108,0.036,0.205,0.066,0.303,0.098
	c0.313,0.1,0.631,0.227,0.963,0.277c17.006,2.82,20.939-10.279,20.939-10.279c-3.542,5.103-10.398,7.533-17.715,5.633
	c-0.328-0.084-0.648-0.178-0.963-0.28c-0.101-0.026-0.189-0.058-0.287-0.091c-0.228-0.073-0.455-0.149-0.676-0.231
	c-0.101-0.037-0.205-0.075-0.306-0.114c-0.243-0.095-0.485-0.188-0.721-0.293c-0.071-0.028-0.138-0.052-0.194-0.082
	c-0.302-0.131-0.601-0.271-0.892-0.411c-0.149-0.077-0.295-0.151-0.444-0.229c-0.09-0.045-0.176-0.088-0.254-0.129
	c-0.197-0.103-0.381-0.211-0.567-0.321c-0.044-0.024-0.089-0.047-0.134-0.073c-0.229-0.138-0.463-0.276-0.68-0.42
	c-0.074-0.042-0.139-0.091-0.209-0.136c-0.149-0.095-0.295-0.19-0.448-0.293c-0.31-0.215-0.612-0.442-0.914-0.67
	c-0.071-0.058-0.138-0.11-0.206-0.166c-3.209-2.527-5.748-5.983-6.949-9.896c-1.27-4.065-0.989-8.628,1.198-12.329"/>
<path fill="#444444" d="M34.127,5.931c-1.948,2.859-2.135,6.411-0.791,9.564c1.426,3.352,4.34,5.981,7.737,7.226
	c0.138,0.054,0.276,0.099,0.418,0.147c0.063,0.019,0.123,0.039,0.19,0.06c0.197,0.062,0.396,0.136,0.601,0.176
	c9.395,1.814,11.94-4.821,12.624-5.797c-2.236,3.214-5.987,3.984-10.59,2.867c-0.361-0.088-0.758-0.218-1.108-0.345
	c-0.448-0.159-0.892-0.343-1.325-0.547c-0.81-0.394-1.594-0.868-2.318-1.417c-4.12-3.124-6.673-9.083-3.986-13.937"/>
<path fill="#444444" d="M251.813,19.324l0.369,1.557c0.104,0.446-0.179,0.806-0.635,0.806"/>
<path fill="#444444" d="M222.177,16.651c-0.093,0.431-0.205,0.976-0.279,1.336l-3.251,15.215l3.419-16.029L222.177,16.651z"/>
<polygon fill="#444444" points="124.781,26.833 122.986,33.192 124.781,26.835 "/>
<path fill="#444444" d="M252.183,20.88l-0.937-3.962c-0.739-2.867-2.833-4.222-7.539-4.222h-19.794
	c-0.456,0-0.911,0.206-1.004,0.651l-7.51,35.615c-0.098,0.449-0.127,0.77-0.075,0.992c0.053,0.23,0.934,0.188,1.385,0.188h6.856
	c0.459,0,1.292,0.033,1.534-0.064c0.254-0.104,0.366-0.783,0.459-1.232l2.423-12.486l2.96-13.852c0.097-0.444,0.545-0.808,1-0.808
	l19.606-0.013C252,21.687,252.287,21.325,252.183,20.88"/>
<path fill="#444444" d="M280.074,6.443c-0.459,0.005-8.695,0-8.695,0c-0.455,0-1.041,0.489-1.295,0.866l-15.263,22.455
	c-0.261,0.377-0.556,0.364-0.656-0.08l-1.128-4.921c-0.097-0.446-0.552-0.81-1.015-0.81h-9.81c-0.451,0-0.724,0.377-0.604,0.817
	l4.397,15.416c0.127,0.441,0.138,1.162,0.025,1.604l-2.051,7.809c-0.108,0.443,0.172,0.576,0.635,0.576h9.686
	c0.455,0,0.926-0.131,1.037-0.576l2.052-7.918c0.112-0.441,0.429-1.041,0.701-1.41L283,7.236c0.28-0.362,0.24-0.795-0.215-0.795
	L280.074,6.443z"/>
<path fill="#444444" d="M177.939,12.727h-8.854c-0.451,0-0.914,0.159-1.004,0.606l-2.926,13.692l-2.915,13.109
	c-0.094,0.445-0.545,0.414-1.001,0.414h-5.818c-5.756,0-5.092-3.637-3.908-9.087c0.015-0.054,3.691-18.128,3.691-18.128
	c0.082-0.446-0.217-0.606-0.668-0.606h-8.436c-0.455,0-0.907,0.161-0.996,0.606l-3.394,18.115
	c-1.692,9.794-1.743,18.413,9.615,18.696c0.187,0.008,17.935,0,17.935,0c0.459,0,0.91-0.15,1.008-0.592l3.852-18.166l3.837-18.242
	C177.958,13.145,178.094,12.727,177.939,12.727z"/>
<path fill="#444444" d="M89.756,12.697h-9.492c-0.455,0-0.914,0.108-1.015,0.556l-1.714,7.411c-0.097,0.438,0.195,0.789,0.654,0.789
	h9.088c0.459,0,0.914-0.414,1.012-0.856l1.65-7.467C89.939,13.13,90.07,12.697,89.756,12.697z"/>
<path fill="#444444" d="M77.573,23.952c-0.452,0-0.915,0.36-1.012,0.806l-1.28,5.653l-2.855,13.054c0,0-1.52,6.939-1.664,7.375
	c0,0-1.279,5.01-4.336,4.809c-1.422-0.094-3.047-0.42-3.047-0.42h-0.004c-0.855-0.258-0.915,0.629-1.02,1.072l-1.885,8.133
	c-0.108,0.445,0.184,0.846,0.635,0.852c0,0,4.087,0.576,6.973,0.576h0.474c7.129,0,10.896-4.191,13.302-15.572l2.822-13.174
	l2.646-12.258c0.098-0.446-0.172-0.86-0.627-0.86"/>
<path fill="#444444" d="M200.342,12.642c-15.967,0-19.778,9.869-21.898,19.65c-2.12,9.974-1.939,17.856,14.581,17.856h0.597
	c6.555,0,14.518,0,14.518,0c0.447-0.008,0.896-0.418,0.985-0.861l1.624-6.326c0.094-0.447-0.209-0.58-0.66-0.58h-14.859
	c-5.382,0-7.309-1.658-7.121-5.381c-0.004-0.424,0.481-1.502,0.937-1.502h22.888c1.005-0.006,1.037-0.594,1.037-0.594
	C215.299,24.389,215.451,12.642,200.342,12.642 M204.551,28.311c0,0.495-1.563,0.4-1.563,0.4l-12.447-0.09
	c-0.43,0-0.553-0.603-0.583-1.034c-0.001-0.015,0.031-0.517,0.067-0.642c0.963-3.337,3.833-5.244,8.384-5.244
	c5.12,0,6.214,2.54,6.214,5.356"/>
<path fill="#444444" d="M131.336,39.855c0,0,4.472-10.862,5.486-17.141c1.389-8.402-2.814-20.586-19.065-20.586
	c-16.153,0-23.163,11.632-25.847,24.28c-2.673,12.738,0.826,23.83,16.891,23.74l24.521-0.016c0.452-0.002,0.923-0.367,1.038-0.803
	l2.067-7.871c0.112-0.443-0.168-0.805-0.627-0.807l-1.975-0.014l-1.974-0.01c-0.389-0.004-0.613-0.256-0.561-0.59
	C131.299,39.979,131.307,39.918,131.336,39.855 M122.9,33.192l-1.84,6.289c-0.127,0.441-0.646,0.736-1.102,0.736h-9.492
	c-7.203,0-8.953-5.567-7.203-13.874c1.758-8.491,5.24-13.745,12.324-14.277c9.687-0.729,11.668,6.11,9.32,13.973L122.9,33.192z"/>
</svg>
